<mxfile host="app.diagrams.net" modified="2023-12-19T04:14:20.224Z" agent="Mozilla/5.0 (Macintosh; Intel Mac OS X 10_15_7) AppleWebKit/537.36 (KHTML, like Gecko) Chrome/111.0.0.0 Safari/537.36" etag="a_2cGncAf917mgrPB9as" version="22.1.11" type="github" pages="4">
  <diagram name="score_avg" id="b0zOKrrBqR3DKJ6Fc9BZ">
    <mxGraphModel dx="1593" dy="803" grid="1" gridSize="10" guides="1" tooltips="1" connect="1" arrows="1" fold="1" page="1" pageScale="1" pageWidth="850" pageHeight="1100" math="0" shadow="0">
      <root>
        <mxCell id="0" />
        <mxCell id="1" parent="0" />
        <mxCell id="WSYJ7aGYuGWqR7QQ4PJD-1" value="scoreAvg" style="rounded=0;whiteSpace=wrap;html=1;labelBackgroundColor=none;fillColor=#182E3E;strokeColor=#FFFFFF;fontColor=#FFFFFF;" parent="1" vertex="1">
          <mxGeometry x="365" y="70" width="105" height="40" as="geometry" />
        </mxCell>
        <mxCell id="WSYJ7aGYuGWqR7QQ4PJD-2" value="storeInput" style="rounded=0;whiteSpace=wrap;html=1;labelBackgroundColor=none;fillColor=#182E3E;strokeColor=#FFFFFF;fontColor=#FFFFFF;" parent="1" vertex="1">
          <mxGeometry x="200" y="190" width="105" height="40" as="geometry" />
        </mxCell>
        <mxCell id="WSYJ7aGYuGWqR7QQ4PJD-6" value="calcAvgScore" style="rounded=0;whiteSpace=wrap;html=1;labelBackgroundColor=none;fillColor=#182E3E;strokeColor=#FFFFFF;fontColor=#FFFFFF;" parent="1" vertex="1">
          <mxGeometry x="365" y="190" width="105" height="40" as="geometry" />
        </mxCell>
        <mxCell id="WSYJ7aGYuGWqR7QQ4PJD-10" value="printGrade" style="rounded=0;whiteSpace=wrap;html=1;labelBackgroundColor=none;fillColor=#182E3E;strokeColor=#FFFFFF;fontColor=#FFFFFF;" parent="1" vertex="1">
          <mxGeometry x="530" y="190" width="105" height="40" as="geometry" />
        </mxCell>
        <mxCell id="6bv2-gyL5MylZ1we0OpQ-1" value="" style="endArrow=none;html=1;rounded=0;exitX=0.5;exitY=0;exitDx=0;exitDy=0;entryX=0.5;entryY=1;entryDx=0;entryDy=0;" edge="1" parent="1" source="WSYJ7aGYuGWqR7QQ4PJD-2" target="WSYJ7aGYuGWqR7QQ4PJD-1">
          <mxGeometry width="50" height="50" relative="1" as="geometry">
            <mxPoint x="400" y="390" as="sourcePoint" />
            <mxPoint x="450" y="340" as="targetPoint" />
          </mxGeometry>
        </mxCell>
        <mxCell id="6bv2-gyL5MylZ1we0OpQ-5" value="" style="endArrow=none;html=1;rounded=0;entryX=0.5;entryY=1;entryDx=0;entryDy=0;exitX=0.5;exitY=0;exitDx=0;exitDy=0;" edge="1" parent="1" source="WSYJ7aGYuGWqR7QQ4PJD-6" target="WSYJ7aGYuGWqR7QQ4PJD-1">
          <mxGeometry width="50" height="50" relative="1" as="geometry">
            <mxPoint x="400" y="390" as="sourcePoint" />
            <mxPoint x="450" y="340" as="targetPoint" />
          </mxGeometry>
        </mxCell>
        <mxCell id="6bv2-gyL5MylZ1we0OpQ-6" value="" style="endArrow=none;html=1;rounded=0;entryX=0.5;entryY=1;entryDx=0;entryDy=0;exitX=0.5;exitY=0;exitDx=0;exitDy=0;" edge="1" parent="1" source="WSYJ7aGYuGWqR7QQ4PJD-10" target="WSYJ7aGYuGWqR7QQ4PJD-1">
          <mxGeometry width="50" height="50" relative="1" as="geometry">
            <mxPoint x="400" y="390" as="sourcePoint" />
            <mxPoint x="450" y="340" as="targetPoint" />
          </mxGeometry>
        </mxCell>
      </root>
    </mxGraphModel>
  </diagram>
  <diagram id="NdTbiW0fD7UFTqG2_XEl" name="quadrant_identifier">
    <mxGraphModel dx="1434" dy="723" grid="1" gridSize="10" guides="1" tooltips="1" connect="1" arrows="1" fold="1" page="1" pageScale="1" pageWidth="850" pageHeight="1100" math="0" shadow="0">
      <root>
        <mxCell id="0" />
        <mxCell id="1" parent="0" />
        <mxCell id="RXPVsiQ8E4gduPHeeI_G-1" value="quadrantIdentifier" style="rounded=0;whiteSpace=wrap;html=1;labelBackgroundColor=none;fillColor=#182E3E;strokeColor=#FFFFFF;fontColor=#FFFFFF;" parent="1" vertex="1">
          <mxGeometry x="373" y="70" width="105" height="40" as="geometry" />
        </mxCell>
        <mxCell id="RXPVsiQ8E4gduPHeeI_G-2" value="getInput" style="rounded=0;whiteSpace=wrap;html=1;labelBackgroundColor=none;fillColor=#182E3E;strokeColor=#FFFFFF;fontColor=#FFFFFF;" parent="1" vertex="1">
          <mxGeometry x="268" y="150" width="105" height="40" as="geometry" />
        </mxCell>
        <mxCell id="RXPVsiQ8E4gduPHeeI_G-4" value="printQuadrant" style="rounded=0;whiteSpace=wrap;html=1;labelBackgroundColor=none;fillColor=#182E3E;strokeColor=#FFFFFF;fontColor=#FFFFFF;" parent="1" vertex="1">
          <mxGeometry x="478" y="150" width="105" height="40" as="geometry" />
        </mxCell>
        <mxCell id="GEIgOUyD6CZIGIqeHLht-1" value="" style="endArrow=none;html=1;rounded=0;entryX=0.5;entryY=1;entryDx=0;entryDy=0;exitX=0.5;exitY=0;exitDx=0;exitDy=0;" edge="1" parent="1" source="RXPVsiQ8E4gduPHeeI_G-2" target="RXPVsiQ8E4gduPHeeI_G-1">
          <mxGeometry width="50" height="50" relative="1" as="geometry">
            <mxPoint x="400" y="400" as="sourcePoint" />
            <mxPoint x="450" y="350" as="targetPoint" />
          </mxGeometry>
        </mxCell>
        <mxCell id="GEIgOUyD6CZIGIqeHLht-2" value="" style="endArrow=none;html=1;rounded=0;entryX=0.5;entryY=1;entryDx=0;entryDy=0;exitX=0.5;exitY=0;exitDx=0;exitDy=0;" edge="1" parent="1" source="RXPVsiQ8E4gduPHeeI_G-4" target="RXPVsiQ8E4gduPHeeI_G-1">
          <mxGeometry width="50" height="50" relative="1" as="geometry">
            <mxPoint x="400" y="400" as="sourcePoint" />
            <mxPoint x="450" y="350" as="targetPoint" />
          </mxGeometry>
        </mxCell>
      </root>
    </mxGraphModel>
  </diagram>
  <diagram id="AKPk0soYxbFYP3CbbuwJ" name="quadratic_formula">
    <mxGraphModel dx="1434" dy="723" grid="1" gridSize="10" guides="1" tooltips="1" connect="1" arrows="1" fold="1" page="1" pageScale="1" pageWidth="850" pageHeight="1100" math="0" shadow="0">
      <root>
        <mxCell id="0" />
        <mxCell id="1" parent="0" />
        <mxCell id="X70y4Mrz-g3U4tTGpFAJ-3" value="" style="edgeStyle=orthogonalEdgeStyle;rounded=0;orthogonalLoop=1;jettySize=auto;html=1;" parent="1" source="X70y4Mrz-g3U4tTGpFAJ-1" target="X70y4Mrz-g3U4tTGpFAJ-2" edge="1">
          <mxGeometry relative="1" as="geometry" />
        </mxCell>
        <mxCell id="X70y4Mrz-g3U4tTGpFAJ-1" value="quadraticFormula" style="rounded=0;whiteSpace=wrap;html=1;" parent="1" vertex="1">
          <mxGeometry x="365" y="70" width="105" height="40" as="geometry" />
        </mxCell>
        <mxCell id="X70y4Mrz-g3U4tTGpFAJ-2" value="quadraticRoots" style="rounded=0;whiteSpace=wrap;html=1;" parent="1" vertex="1">
          <mxGeometry x="365" y="160" width="105" height="40" as="geometry" />
        </mxCell>
      </root>
    </mxGraphModel>
  </diagram>
  <diagram id="xutX14DIuXk_uYuOI-Kv" name="parking_fee">
    <mxGraphModel dx="1434" dy="723" grid="1" gridSize="10" guides="1" tooltips="1" connect="1" arrows="1" fold="1" page="1" pageScale="1" pageWidth="850" pageHeight="1100" math="0" shadow="0">
      <root>
        <mxCell id="0" />
        <mxCell id="1" parent="0" />
        <mxCell id="ZDSKOXPx-gbFRuo8myWn-1" value="parkingFee" style="rounded=0;whiteSpace=wrap;html=1;" parent="1" vertex="1">
          <mxGeometry x="373" y="80" width="105" height="40" as="geometry" />
        </mxCell>
        <mxCell id="ZDSKOXPx-gbFRuo8myWn-2" value="calcHours" style="rounded=0;whiteSpace=wrap;html=1;" parent="1" vertex="1">
          <mxGeometry x="130" y="190" width="105" height="40" as="geometry" />
        </mxCell>
        <mxCell id="ZDSKOXPx-gbFRuo8myWn-5" value="returnRounded" style="rounded=0;whiteSpace=wrap;html=1;" parent="1" vertex="1">
          <mxGeometry x="280" y="190" width="105" height="40" as="geometry" />
        </mxCell>
        <mxCell id="ZDSKOXPx-gbFRuo8myWn-10" value="calcCharges" style="rounded=0;whiteSpace=wrap;html=1;" parent="1" vertex="1">
          <mxGeometry x="470" y="190" width="105" height="40" as="geometry" />
        </mxCell>
        <mxCell id="ZDSKOXPx-gbFRuo8myWn-12" value="printCharges" style="rounded=0;whiteSpace=wrap;html=1;" parent="1" vertex="1">
          <mxGeometry x="620" y="190" width="105" height="40" as="geometry" />
        </mxCell>
        <mxCell id="ZDSKOXPx-gbFRuo8myWn-14" value="vehicleIdentifier" style="rounded=0;whiteSpace=wrap;html=1;" parent="1" vertex="1">
          <mxGeometry x="620" y="280" width="105" height="40" as="geometry" />
        </mxCell>
        <mxCell id="pRsFnig2B8NzO3-wurZl-4" value="" style="endArrow=none;html=1;rounded=0;strokeColor=#23445D;entryX=0.5;entryY=1;entryDx=0;entryDy=0;exitX=0.5;exitY=0;exitDx=0;exitDy=0;" parent="1" source="ZDSKOXPx-gbFRuo8myWn-2" target="ZDSKOXPx-gbFRuo8myWn-1" edge="1">
          <mxGeometry width="50" height="50" relative="1" as="geometry">
            <mxPoint x="375" y="170" as="sourcePoint" />
            <mxPoint x="425" y="120" as="targetPoint" />
          </mxGeometry>
        </mxCell>
        <mxCell id="pRsFnig2B8NzO3-wurZl-5" value="" style="endArrow=none;html=1;rounded=0;strokeColor=#23445D;entryX=0.5;entryY=1;entryDx=0;entryDy=0;exitX=0.5;exitY=0;exitDx=0;exitDy=0;" parent="1" source="ZDSKOXPx-gbFRuo8myWn-5" target="ZDSKOXPx-gbFRuo8myWn-1" edge="1">
          <mxGeometry width="50" height="50" relative="1" as="geometry">
            <mxPoint x="400" y="310" as="sourcePoint" />
            <mxPoint x="450" y="260" as="targetPoint" />
          </mxGeometry>
        </mxCell>
        <mxCell id="pRsFnig2B8NzO3-wurZl-6" value="" style="endArrow=none;html=1;rounded=0;strokeColor=#23445D;entryX=0.5;entryY=1;entryDx=0;entryDy=0;exitX=0.5;exitY=0;exitDx=0;exitDy=0;" parent="1" source="ZDSKOXPx-gbFRuo8myWn-10" target="ZDSKOXPx-gbFRuo8myWn-1" edge="1">
          <mxGeometry width="50" height="50" relative="1" as="geometry">
            <mxPoint x="400" y="310" as="sourcePoint" />
            <mxPoint x="450" y="260" as="targetPoint" />
          </mxGeometry>
        </mxCell>
        <mxCell id="pRsFnig2B8NzO3-wurZl-7" value="" style="endArrow=none;html=1;rounded=0;strokeColor=#23445D;exitX=0.5;exitY=0;exitDx=0;exitDy=0;entryX=0.5;entryY=1;entryDx=0;entryDy=0;" parent="1" source="ZDSKOXPx-gbFRuo8myWn-12" target="ZDSKOXPx-gbFRuo8myWn-1" edge="1">
          <mxGeometry width="50" height="50" relative="1" as="geometry">
            <mxPoint x="400" y="310" as="sourcePoint" />
            <mxPoint x="450" y="260" as="targetPoint" />
          </mxGeometry>
        </mxCell>
        <mxCell id="pRsFnig2B8NzO3-wurZl-8" value="" style="endArrow=none;html=1;rounded=0;strokeColor=#23445D;entryX=0.5;entryY=1;entryDx=0;entryDy=0;exitX=0.5;exitY=0;exitDx=0;exitDy=0;" parent="1" source="ZDSKOXPx-gbFRuo8myWn-14" target="ZDSKOXPx-gbFRuo8myWn-12" edge="1">
          <mxGeometry width="50" height="50" relative="1" as="geometry">
            <mxPoint x="400" y="310" as="sourcePoint" />
            <mxPoint x="450" y="260" as="targetPoint" />
          </mxGeometry>
        </mxCell>
      </root>
    </mxGraphModel>
  </diagram>
</mxfile>
